<mxfile host="Electron" modified="2024-08-20T17:04:11.089Z" agent="Mozilla/5.0 (Windows NT 10.0; Win64; x64) AppleWebKit/537.36 (KHTML, like Gecko) draw.io/24.2.5 Chrome/120.0.6099.109 Electron/28.1.0 Safari/537.36" etag="L_TQS7XRsGqY1OvBa577" version="24.2.5" type="device">
  <diagram name="Page-1" id="c4acf3e9-155e-7222-9cf6-157b1a14988f">
    <mxGraphModel dx="1077" dy="641" grid="1" gridSize="10" guides="1" tooltips="1" connect="1" arrows="1" fold="1" page="1" pageScale="1" pageWidth="850" pageHeight="1100" background="none" math="0" shadow="0">
      <root>
        <mxCell id="0" />
        <mxCell id="1" parent="0" />
        <mxCell id="Xy19DxBYmVt9RFk1YGQX-6" value="VariableDefs:" style="ellipse;whiteSpace=wrap;html=1;" parent="1" vertex="1">
          <mxGeometry x="120" y="650" width="120" height="40" as="geometry" />
        </mxCell>
        <mxCell id="Xy19DxBYmVt9RFk1YGQX-21" value="TransformationAndCodeGenerationPreconfigurations:" style="ellipse;whiteSpace=wrap;html=1;" parent="1" vertex="1">
          <mxGeometry x="120" y="820" width="320" height="60" as="geometry" />
        </mxCell>
        <mxCell id="Xy19DxBYmVt9RFk1YGQX-25" value="[Schrittdefintionen fÃ¼r ContainerTransformation, ContainerCodeGeneration und ComponentCodeGeneration]" style="rounded=0;whiteSpace=wrap;html=1;" parent="1" vertex="1">
          <mxGeometry x="200" y="920" width="200" height="80" as="geometry" />
        </mxCell>
        <mxCell id="VncrwMLAorD3W6XY7oEO-13" value="PipelineSequence:" style="ellipse;whiteSpace=wrap;html=1;" parent="1" vertex="1">
          <mxGeometry x="120" y="1350" width="140" height="40" as="geometry" />
        </mxCell>
        <mxCell id="VncrwMLAorD3W6XY7oEO-19" value="" style="endArrow=classic;html=1;rounded=0;entryX=0;entryY=0.5;entryDx=0;entryDy=0;" parent="1" edge="1">
          <mxGeometry width="50" height="50" relative="1" as="geometry">
            <mxPoint x="160" y="750" as="sourcePoint" />
            <mxPoint x="200" y="750" as="targetPoint" />
          </mxGeometry>
        </mxCell>
        <mxCell id="VncrwMLAorD3W6XY7oEO-32" value="[Variablendefinitionen&lt;br&gt;mit Werten und Typen]" style="rounded=0;whiteSpace=wrap;html=1;" parent="1" vertex="1">
          <mxGeometry x="200" y="730" width="200" height="40" as="geometry" />
        </mxCell>
        <mxCell id="E0emM88F3iHoWUEOLmMb-36" value="" style="endArrow=classic;html=1;rounded=0;entryX=0;entryY=0.5;entryDx=0;entryDy=0;" parent="1" target="Xy19DxBYmVt9RFk1YGQX-6" edge="1">
          <mxGeometry width="50" height="50" relative="1" as="geometry">
            <mxPoint x="80" y="670" as="sourcePoint" />
            <mxPoint x="520" y="660" as="targetPoint" />
          </mxGeometry>
        </mxCell>
        <mxCell id="E0emM88F3iHoWUEOLmMb-37" value="" style="endArrow=classic;html=1;rounded=0;" parent="1" edge="1">
          <mxGeometry width="50" height="50" relative="1" as="geometry">
            <mxPoint x="80" y="630" as="sourcePoint" />
            <mxPoint x="80" y="790" as="targetPoint" />
          </mxGeometry>
        </mxCell>
        <mxCell id="E0emM88F3iHoWUEOLmMb-38" value="" style="endArrow=classic;html=1;rounded=0;entryX=0;entryY=0.5;entryDx=0;entryDy=0;" parent="1" edge="1">
          <mxGeometry width="50" height="50" relative="1" as="geometry">
            <mxPoint x="80" y="850" as="sourcePoint" />
            <mxPoint x="120" y="850" as="targetPoint" />
          </mxGeometry>
        </mxCell>
        <mxCell id="E0emM88F3iHoWUEOLmMb-39" value="" style="endArrow=classic;html=1;rounded=0;" parent="1" edge="1">
          <mxGeometry width="50" height="50" relative="1" as="geometry">
            <mxPoint x="80" y="790" as="sourcePoint" />
            <mxPoint x="80" y="1040" as="targetPoint" />
          </mxGeometry>
        </mxCell>
        <mxCell id="E0emM88F3iHoWUEOLmMb-40" value="" style="endArrow=classic;html=1;rounded=0;entryX=0;entryY=0.5;entryDx=0;entryDy=0;" parent="1" edge="1">
          <mxGeometry width="50" height="50" relative="1" as="geometry">
            <mxPoint x="80" y="1090" as="sourcePoint" />
            <mxPoint x="120" y="1090" as="targetPoint" />
          </mxGeometry>
        </mxCell>
        <mxCell id="E0emM88F3iHoWUEOLmMb-41" value="" style="endArrow=classic;html=1;rounded=0;" parent="1" edge="1">
          <mxGeometry width="50" height="50" relative="1" as="geometry">
            <mxPoint x="80" y="1040" as="sourcePoint" />
            <mxPoint x="80" y="1320" as="targetPoint" />
          </mxGeometry>
        </mxCell>
        <mxCell id="E0emM88F3iHoWUEOLmMb-42" value="" style="endArrow=classic;html=1;rounded=0;entryX=0;entryY=0.5;entryDx=0;entryDy=0;" parent="1" edge="1">
          <mxGeometry width="50" height="50" relative="1" as="geometry">
            <mxPoint x="80" y="1370" as="sourcePoint" />
            <mxPoint x="120" y="1370" as="targetPoint" />
          </mxGeometry>
        </mxCell>
        <mxCell id="E0emM88F3iHoWUEOLmMb-43" value="" style="endArrow=classic;html=1;rounded=0;" parent="1" edge="1">
          <mxGeometry width="50" height="50" relative="1" as="geometry">
            <mxPoint x="80" y="1320" as="sourcePoint" />
            <mxPoint x="80" y="1640" as="targetPoint" />
          </mxGeometry>
        </mxCell>
        <mxCell id="E0emM88F3iHoWUEOLmMb-86" value="" style="endArrow=none;html=1;rounded=0;endFill=0;" parent="1" edge="1">
          <mxGeometry width="50" height="50" relative="1" as="geometry">
            <mxPoint x="160" y="1390" as="sourcePoint" />
            <mxPoint x="160" y="1530" as="targetPoint" />
          </mxGeometry>
        </mxCell>
        <mxCell id="E0emM88F3iHoWUEOLmMb-96" value="" style="endArrow=classic;html=1;rounded=0;" parent="1" edge="1">
          <mxGeometry width="50" height="50" relative="1" as="geometry">
            <mxPoint x="720" y="1320" as="sourcePoint" />
            <mxPoint x="80" y="1320" as="targetPoint" />
          </mxGeometry>
        </mxCell>
        <mxCell id="E0emM88F3iHoWUEOLmMb-99" value="" style="endArrow=classic;html=1;rounded=0;" parent="1" edge="1">
          <mxGeometry width="50" height="50" relative="1" as="geometry">
            <mxPoint x="80" y="1640" as="sourcePoint" />
            <mxPoint x="80" y="1670" as="targetPoint" />
          </mxGeometry>
        </mxCell>
        <mxCell id="E0emM88F3iHoWUEOLmMb-110" value="" style="endArrow=classic;html=1;rounded=0;" parent="1" edge="1">
          <mxGeometry width="50" height="50" relative="1" as="geometry">
            <mxPoint x="300" y="1040" as="sourcePoint" />
            <mxPoint x="80" y="1040" as="targetPoint" />
          </mxGeometry>
        </mxCell>
        <mxCell id="E0emM88F3iHoWUEOLmMb-111" value="" style="endArrow=classic;html=1;rounded=0;exitX=0.5;exitY=1;exitDx=0;exitDy=0;" parent="1" source="Xy19DxBYmVt9RFk1YGQX-25" edge="1">
          <mxGeometry width="50" height="50" relative="1" as="geometry">
            <mxPoint x="379.58" y="1030" as="sourcePoint" />
            <mxPoint x="300" y="1040" as="targetPoint" />
          </mxGeometry>
        </mxCell>
        <mxCell id="E0emM88F3iHoWUEOLmMb-121" value="" style="endArrow=classic;html=1;rounded=0;entryX=0;entryY=0.5;entryDx=0;entryDy=0;" parent="1" edge="1">
          <mxGeometry width="50" height="50" relative="1" as="geometry">
            <mxPoint x="160" y="870" as="sourcePoint" />
            <mxPoint x="200.00000000001273" y="949.9999999999998" as="targetPoint" />
            <Array as="points">
              <mxPoint x="160" y="950" />
            </Array>
          </mxGeometry>
        </mxCell>
        <mxCell id="CR32XnRNLav2fa-Jh0e9-4" value="" style="endArrow=none;html=1;rounded=0;" parent="1" edge="1">
          <mxGeometry width="50" height="50" relative="1" as="geometry">
            <mxPoint x="160" y="750" as="sourcePoint" />
            <mxPoint x="160" y="690" as="targetPoint" />
          </mxGeometry>
        </mxCell>
        <mxCell id="CR32XnRNLav2fa-Jh0e9-8" value="" style="endArrow=classic;html=1;rounded=0;" parent="1" edge="1">
          <mxGeometry width="50" height="50" relative="1" as="geometry">
            <mxPoint x="350" y="790" as="sourcePoint" />
            <mxPoint x="80" y="790" as="targetPoint" />
          </mxGeometry>
        </mxCell>
        <mxCell id="CR32XnRNLav2fa-Jh0e9-9" value="" style="endArrow=classic;html=1;rounded=0;exitX=0.5;exitY=1;exitDx=0;exitDy=0;" parent="1" edge="1">
          <mxGeometry width="50" height="50" relative="1" as="geometry">
            <mxPoint x="349.5800000000002" y="770" as="sourcePoint" />
            <mxPoint x="350" y="790" as="targetPoint" />
          </mxGeometry>
        </mxCell>
        <mxCell id="WHSJJvDZI68V2BLPJErs-6" value="" style="endArrow=classic;html=1;rounded=0;" parent="1" edge="1">
          <mxGeometry width="50" height="50" relative="1" as="geometry">
            <mxPoint x="440" y="710" as="sourcePoint" />
            <mxPoint x="160" y="710" as="targetPoint" />
          </mxGeometry>
        </mxCell>
        <mxCell id="WHSJJvDZI68V2BLPJErs-8" value="" style="endArrow=none;html=1;rounded=0;entryX=1;entryY=0.5;entryDx=0;entryDy=0;" parent="1" target="VncrwMLAorD3W6XY7oEO-32" edge="1">
          <mxGeometry width="50" height="50" relative="1" as="geometry">
            <mxPoint x="440" y="710" as="sourcePoint" />
            <mxPoint x="450" y="840" as="targetPoint" />
            <Array as="points">
              <mxPoint x="440" y="750" />
            </Array>
          </mxGeometry>
        </mxCell>
        <mxCell id="WHSJJvDZI68V2BLPJErs-9" value="" style="endArrow=classic;html=1;rounded=0;" parent="1" edge="1">
          <mxGeometry width="50" height="50" relative="1" as="geometry">
            <mxPoint x="440" y="900" as="sourcePoint" />
            <mxPoint x="160" y="900" as="targetPoint" />
          </mxGeometry>
        </mxCell>
        <mxCell id="WHSJJvDZI68V2BLPJErs-10" value="" style="endArrow=none;html=1;rounded=0;entryX=1;entryY=0.5;entryDx=0;entryDy=0;" parent="1" edge="1">
          <mxGeometry width="50" height="50" relative="1" as="geometry">
            <mxPoint x="440" y="900" as="sourcePoint" />
            <mxPoint x="400" y="930" as="targetPoint" />
            <Array as="points">
              <mxPoint x="440" y="930" />
            </Array>
          </mxGeometry>
        </mxCell>
        <mxCell id="WHSJJvDZI68V2BLPJErs-11" value="- direct:_" style="ellipse;whiteSpace=wrap;html=1;" parent="1" vertex="1">
          <mxGeometry x="200" y="1130" width="80" height="40" as="geometry" />
        </mxCell>
        <mxCell id="WHSJJvDZI68V2BLPJErs-12" value="" style="endArrow=classic;html=1;rounded=0;entryX=0;entryY=0.5;entryDx=0;entryDy=0;" parent="1" target="WHSJJvDZI68V2BLPJErs-11" edge="1">
          <mxGeometry width="50" height="50" relative="1" as="geometry">
            <mxPoint x="160" y="1150" as="sourcePoint" />
            <mxPoint x="290" y="1161" as="targetPoint" />
          </mxGeometry>
        </mxCell>
        <mxCell id="WHSJJvDZI68V2BLPJErs-13" value="" style="endArrow=classic;html=1;rounded=0;exitX=1;exitY=0.5;exitDx=0;exitDy=0;" parent="1" source="WHSJJvDZI68V2BLPJErs-11" edge="1">
          <mxGeometry width="50" height="50" relative="1" as="geometry">
            <mxPoint x="460" y="1190" as="sourcePoint" />
            <mxPoint x="320" y="1150" as="targetPoint" />
          </mxGeometry>
        </mxCell>
        <mxCell id="WHSJJvDZI68V2BLPJErs-14" value="[Eine Schrittdefinition]" style="rounded=0;whiteSpace=wrap;html=1;" parent="1" vertex="1">
          <mxGeometry x="320" y="1130" width="140" height="40" as="geometry" />
        </mxCell>
        <mxCell id="WHSJJvDZI68V2BLPJErs-15" value="- from_" style="ellipse;whiteSpace=wrap;html=1;" parent="1" vertex="1">
          <mxGeometry x="200" y="1250" width="80" height="40" as="geometry" />
        </mxCell>
        <mxCell id="WHSJJvDZI68V2BLPJErs-16" value="" style="endArrow=classic;html=1;rounded=0;entryX=0;entryY=0.5;entryDx=0;entryDy=0;" parent="1" target="WHSJJvDZI68V2BLPJErs-15" edge="1">
          <mxGeometry width="50" height="50" relative="1" as="geometry">
            <mxPoint x="160" y="1270" as="sourcePoint" />
            <mxPoint x="210" y="1160" as="targetPoint" />
          </mxGeometry>
        </mxCell>
        <mxCell id="WHSJJvDZI68V2BLPJErs-18" value="" style="endArrow=classic;html=1;rounded=0;entryX=0;entryY=0.5;entryDx=0;entryDy=0;exitX=1;exitY=0.5;exitDx=0;exitDy=0;" parent="1" source="WHSJJvDZI68V2BLPJErs-15" edge="1">
          <mxGeometry width="50" height="50" relative="1" as="geometry">
            <mxPoint x="320.00000000000637" y="1269.9999999999995" as="sourcePoint" />
            <mxPoint x="360" y="1270" as="targetPoint" />
          </mxGeometry>
        </mxCell>
        <mxCell id="WHSJJvDZI68V2BLPJErs-19" value="[Name eines Schrittes definiert in TransformationAndCodeGenerationPreconfigurations]" style="rounded=0;whiteSpace=wrap;html=1;" parent="1" vertex="1">
          <mxGeometry x="320" y="1250" width="320" height="40" as="geometry" />
        </mxCell>
        <mxCell id="WHSJJvDZI68V2BLPJErs-23" value="" style="endArrow=classic;html=1;rounded=0;entryX=0.5;entryY=1;entryDx=0;entryDy=0;" parent="1" target="WHSJJvDZI68V2BLPJErs-11" edge="1">
          <mxGeometry width="50" height="50" relative="1" as="geometry">
            <mxPoint x="240" y="1210" as="sourcePoint" />
            <mxPoint x="860" y="1150" as="targetPoint" />
          </mxGeometry>
        </mxCell>
        <mxCell id="WHSJJvDZI68V2BLPJErs-24" value="" style="endArrow=classic;html=1;rounded=0;entryX=0.5;entryY=0;entryDx=0;entryDy=0;" parent="1" target="WHSJJvDZI68V2BLPJErs-15" edge="1">
          <mxGeometry width="50" height="50" relative="1" as="geometry">
            <mxPoint x="240" y="1210" as="sourcePoint" />
            <mxPoint x="860" y="1150" as="targetPoint" />
          </mxGeometry>
        </mxCell>
        <mxCell id="WHSJJvDZI68V2BLPJErs-25" value="" style="endArrow=none;html=1;rounded=0;" parent="1" edge="1">
          <mxGeometry width="50" height="50" relative="1" as="geometry">
            <mxPoint x="240" y="1210" as="sourcePoint" />
            <mxPoint x="400" y="1210" as="targetPoint" />
          </mxGeometry>
        </mxCell>
        <mxCell id="WHSJJvDZI68V2BLPJErs-26" value="" style="endArrow=none;html=1;rounded=0;endFill=0;" parent="1" edge="1">
          <mxGeometry width="50" height="50" relative="1" as="geometry">
            <mxPoint x="160" y="1100" as="sourcePoint" />
            <mxPoint x="160" y="1270" as="targetPoint" />
          </mxGeometry>
        </mxCell>
        <mxCell id="WHSJJvDZI68V2BLPJErs-29" value="" style="endArrow=classic;html=1;rounded=0;" parent="1" edge="1">
          <mxGeometry width="50" height="50" relative="1" as="geometry">
            <mxPoint x="680" y="1210" as="sourcePoint" />
            <mxPoint x="400" y="1210" as="targetPoint" />
          </mxGeometry>
        </mxCell>
        <mxCell id="WHSJJvDZI68V2BLPJErs-30" value="" style="endArrow=none;html=1;rounded=0;" parent="1" edge="1">
          <mxGeometry width="50" height="50" relative="1" as="geometry">
            <mxPoint x="679.17" y="1210" as="sourcePoint" />
            <mxPoint x="679.17" y="1270" as="targetPoint" />
          </mxGeometry>
        </mxCell>
        <mxCell id="WHSJJvDZI68V2BLPJErs-31" value="" style="endArrow=classic;html=1;rounded=0;exitX=1;exitY=0.5;exitDx=0;exitDy=0;" parent="1" source="WHSJJvDZI68V2BLPJErs-19" edge="1">
          <mxGeometry width="50" height="50" relative="1" as="geometry">
            <mxPoint x="720" y="1270" as="sourcePoint" />
            <mxPoint x="680" y="1270" as="targetPoint" />
          </mxGeometry>
        </mxCell>
        <mxCell id="WHSJJvDZI68V2BLPJErs-33" value="" style="endArrow=classic;html=1;rounded=0;" parent="1" edge="1">
          <mxGeometry width="50" height="50" relative="1" as="geometry">
            <mxPoint x="679.17" y="1270" as="sourcePoint" />
            <mxPoint x="719.17" y="1270" as="targetPoint" />
          </mxGeometry>
        </mxCell>
        <mxCell id="WHSJJvDZI68V2BLPJErs-34" value="" style="endArrow=none;html=1;rounded=0;" parent="1" edge="1">
          <mxGeometry width="50" height="50" relative="1" as="geometry">
            <mxPoint x="719.17" y="1270" as="sourcePoint" />
            <mxPoint x="719" y="1320" as="targetPoint" />
          </mxGeometry>
        </mxCell>
        <mxCell id="WHSJJvDZI68V2BLPJErs-36" value="" style="endArrow=classic;html=1;rounded=0;" parent="1" edge="1">
          <mxGeometry width="50" height="50" relative="1" as="geometry">
            <mxPoint x="719.17" y="1150" as="sourcePoint" />
            <mxPoint x="719.17" y="1270" as="targetPoint" />
          </mxGeometry>
        </mxCell>
        <mxCell id="WHSJJvDZI68V2BLPJErs-39" value="" style="endArrow=classic;html=1;rounded=0;exitX=1;exitY=0.5;exitDx=0;exitDy=0;" parent="1" edge="1">
          <mxGeometry width="50" height="50" relative="1" as="geometry">
            <mxPoint x="460" y="1150" as="sourcePoint" />
            <mxPoint x="720" y="1150" as="targetPoint" />
          </mxGeometry>
        </mxCell>
        <mxCell id="WHSJJvDZI68V2BLPJErs-41" value="" style="endArrow=classic;html=1;rounded=0;" parent="1" edge="1">
          <mxGeometry width="50" height="50" relative="1" as="geometry">
            <mxPoint x="760" y="1640" as="sourcePoint" />
            <mxPoint x="80" y="1640" as="targetPoint" />
          </mxGeometry>
        </mxCell>
        <mxCell id="WHSJJvDZI68V2BLPJErs-42" value="- direct:_" style="ellipse;whiteSpace=wrap;html=1;" parent="1" vertex="1">
          <mxGeometry x="200" y="1410" width="80" height="40" as="geometry" />
        </mxCell>
        <mxCell id="WHSJJvDZI68V2BLPJErs-43" value="" style="endArrow=classic;html=1;rounded=0;entryX=0;entryY=0.5;entryDx=0;entryDy=0;" parent="1" target="WHSJJvDZI68V2BLPJErs-42" edge="1">
          <mxGeometry width="50" height="50" relative="1" as="geometry">
            <mxPoint x="160" y="1430" as="sourcePoint" />
            <mxPoint x="290" y="1441" as="targetPoint" />
          </mxGeometry>
        </mxCell>
        <mxCell id="WHSJJvDZI68V2BLPJErs-44" value="" style="endArrow=classic;html=1;rounded=0;exitX=1;exitY=0.5;exitDx=0;exitDy=0;" parent="1" source="WHSJJvDZI68V2BLPJErs-42" edge="1">
          <mxGeometry width="50" height="50" relative="1" as="geometry">
            <mxPoint x="460" y="1470" as="sourcePoint" />
            <mxPoint x="320" y="1430" as="targetPoint" />
          </mxGeometry>
        </mxCell>
        <mxCell id="WHSJJvDZI68V2BLPJErs-45" value="[Eine Schrittdefinition]" style="rounded=0;whiteSpace=wrap;html=1;" parent="1" vertex="1">
          <mxGeometry x="320" y="1410" width="140" height="40" as="geometry" />
        </mxCell>
        <mxCell id="WHSJJvDZI68V2BLPJErs-46" value="- from_" style="ellipse;whiteSpace=wrap;html=1;" parent="1" vertex="1">
          <mxGeometry x="200" y="1510" width="80" height="40" as="geometry" />
        </mxCell>
        <mxCell id="WHSJJvDZI68V2BLPJErs-47" value="" style="endArrow=classic;html=1;rounded=0;entryX=0;entryY=0.5;entryDx=0;entryDy=0;" parent="1" target="WHSJJvDZI68V2BLPJErs-46" edge="1">
          <mxGeometry width="50" height="50" relative="1" as="geometry">
            <mxPoint x="160" y="1530" as="sourcePoint" />
            <mxPoint x="210" y="1420" as="targetPoint" />
          </mxGeometry>
        </mxCell>
        <mxCell id="WHSJJvDZI68V2BLPJErs-48" value="" style="endArrow=classic;html=1;rounded=0;entryX=0;entryY=0.5;entryDx=0;entryDy=0;exitX=1;exitY=0.5;exitDx=0;exitDy=0;" parent="1" source="WHSJJvDZI68V2BLPJErs-46" edge="1">
          <mxGeometry width="50" height="50" relative="1" as="geometry">
            <mxPoint x="320.00000000000637" y="1529.9999999999995" as="sourcePoint" />
            <mxPoint x="360" y="1530" as="targetPoint" />
          </mxGeometry>
        </mxCell>
        <mxCell id="WHSJJvDZI68V2BLPJErs-49" value="[Name eines Schrittes definiert in TransformationAndCodeGenerationPreconfigurations&lt;span style=&quot;background-color: initial;&quot;&gt;]&lt;/span&gt;" style="rounded=0;whiteSpace=wrap;html=1;" parent="1" vertex="1">
          <mxGeometry x="360" y="1510" width="320" height="40" as="geometry" />
        </mxCell>
        <mxCell id="WHSJJvDZI68V2BLPJErs-50" value="" style="endArrow=classic;html=1;rounded=0;entryX=0.5;entryY=1;entryDx=0;entryDy=0;" parent="1" target="WHSJJvDZI68V2BLPJErs-42" edge="1">
          <mxGeometry width="50" height="50" relative="1" as="geometry">
            <mxPoint x="240" y="1480" as="sourcePoint" />
            <mxPoint x="860" y="1430" as="targetPoint" />
          </mxGeometry>
        </mxCell>
        <mxCell id="WHSJJvDZI68V2BLPJErs-51" value="" style="endArrow=classic;html=1;rounded=0;entryX=0.5;entryY=0;entryDx=0;entryDy=0;" parent="1" target="WHSJJvDZI68V2BLPJErs-46" edge="1">
          <mxGeometry width="50" height="50" relative="1" as="geometry">
            <mxPoint x="240" y="1480" as="sourcePoint" />
            <mxPoint x="860" y="1410" as="targetPoint" />
          </mxGeometry>
        </mxCell>
        <mxCell id="WHSJJvDZI68V2BLPJErs-52" value="" style="endArrow=none;html=1;rounded=0;" parent="1" edge="1">
          <mxGeometry width="50" height="50" relative="1" as="geometry">
            <mxPoint x="240" y="1480" as="sourcePoint" />
            <mxPoint x="400" y="1480" as="targetPoint" />
          </mxGeometry>
        </mxCell>
        <mxCell id="WHSJJvDZI68V2BLPJErs-54" value="PostProcessingSequence:_all" style="ellipse;whiteSpace=wrap;html=1;" parent="1" vertex="1">
          <mxGeometry x="360" y="1580" width="200" height="40" as="geometry" />
        </mxCell>
        <mxCell id="WHSJJvDZI68V2BLPJErs-55" value="" style="endArrow=classic;html=1;rounded=0;entryX=0;entryY=0.5;entryDx=0;entryDy=0;" parent="1" target="WHSJJvDZI68V2BLPJErs-54" edge="1">
          <mxGeometry width="50" height="50" relative="1" as="geometry">
            <mxPoint x="320" y="1530" as="sourcePoint" />
            <mxPoint x="330" y="1420" as="targetPoint" />
            <Array as="points">
              <mxPoint x="320" y="1600" />
            </Array>
          </mxGeometry>
        </mxCell>
        <mxCell id="WHSJJvDZI68V2BLPJErs-56" value="" style="endArrow=classic;html=1;rounded=0;" parent="1" edge="1">
          <mxGeometry width="50" height="50" relative="1" as="geometry">
            <mxPoint x="720" y="1480" as="sourcePoint" />
            <mxPoint x="400" y="1480" as="targetPoint" />
          </mxGeometry>
        </mxCell>
        <mxCell id="WHSJJvDZI68V2BLPJErs-57" value="" style="endArrow=none;html=1;rounded=0;" parent="1" edge="1">
          <mxGeometry width="50" height="50" relative="1" as="geometry">
            <mxPoint x="720" y="1480" as="sourcePoint" />
            <mxPoint x="720" y="1530" as="targetPoint" />
          </mxGeometry>
        </mxCell>
        <mxCell id="WHSJJvDZI68V2BLPJErs-58" value="" style="endArrow=classic;html=1;rounded=0;exitX=1;exitY=0.5;exitDx=0;exitDy=0;" parent="1" source="WHSJJvDZI68V2BLPJErs-49" edge="1">
          <mxGeometry width="50" height="50" relative="1" as="geometry">
            <mxPoint x="720" y="1530" as="sourcePoint" />
            <mxPoint x="720" y="1530" as="targetPoint" />
          </mxGeometry>
        </mxCell>
        <mxCell id="WHSJJvDZI68V2BLPJErs-59" value="" style="endArrow=classic;html=1;rounded=0;exitX=1;exitY=0.5;exitDx=0;exitDy=0;" parent="1" source="WHSJJvDZI68V2BLPJErs-54" edge="1">
          <mxGeometry width="50" height="50" relative="1" as="geometry">
            <mxPoint x="770" y="1610" as="sourcePoint" />
            <mxPoint x="720" y="1530" as="targetPoint" />
            <Array as="points">
              <mxPoint x="720" y="1600" />
            </Array>
          </mxGeometry>
        </mxCell>
        <mxCell id="WHSJJvDZI68V2BLPJErs-60" value="" style="endArrow=classic;html=1;rounded=0;" parent="1" edge="1">
          <mxGeometry width="50" height="50" relative="1" as="geometry">
            <mxPoint x="720" y="1530" as="sourcePoint" />
            <mxPoint x="760" y="1530" as="targetPoint" />
          </mxGeometry>
        </mxCell>
        <mxCell id="WHSJJvDZI68V2BLPJErs-61" value="" style="endArrow=none;html=1;rounded=0;" parent="1" edge="1">
          <mxGeometry width="50" height="50" relative="1" as="geometry">
            <mxPoint x="760" y="1530" as="sourcePoint" />
            <mxPoint x="760" y="1640" as="targetPoint" />
          </mxGeometry>
        </mxCell>
        <mxCell id="WHSJJvDZI68V2BLPJErs-62" value="" style="endArrow=classic;html=1;rounded=0;exitX=1;exitY=0.5;exitDx=0;exitDy=0;" parent="1" source="WHSJJvDZI68V2BLPJErs-45" edge="1">
          <mxGeometry width="50" height="50" relative="1" as="geometry">
            <mxPoint x="620" y="1430" as="sourcePoint" />
            <mxPoint x="760" y="1430" as="targetPoint" />
          </mxGeometry>
        </mxCell>
        <mxCell id="WHSJJvDZI68V2BLPJErs-63" value="" style="endArrow=classic;html=1;rounded=0;" parent="1" edge="1">
          <mxGeometry width="50" height="50" relative="1" as="geometry">
            <mxPoint x="760" y="1430" as="sourcePoint" />
            <mxPoint x="760" y="1530" as="targetPoint" />
          </mxGeometry>
        </mxCell>
        <mxCell id="WHSJJvDZI68V2BLPJErs-64" value="" style="endArrow=classic;html=1;rounded=0;exitX=0.5;exitY=1;exitDx=0;exitDy=0;" parent="1" edge="1">
          <mxGeometry width="50" height="50" relative="1" as="geometry">
            <mxPoint x="400" y="1450" as="sourcePoint" />
            <mxPoint x="400" y="1480" as="targetPoint" />
          </mxGeometry>
        </mxCell>
        <mxCell id="WHSJJvDZI68V2BLPJErs-67" value="" style="endArrow=classic;html=1;rounded=0;" parent="1" edge="1">
          <mxGeometry width="50" height="50" relative="1" as="geometry">
            <mxPoint x="400" y="1170" as="sourcePoint" />
            <mxPoint x="400" y="1210" as="targetPoint" />
          </mxGeometry>
        </mxCell>
        <mxCell id="Xy19DxBYmVt9RFk1YGQX-29" value="PostProcessingSequence:" style="ellipse;whiteSpace=wrap;html=1;" parent="1" vertex="1">
          <mxGeometry x="120" y="1070" width="160" height="40" as="geometry" />
        </mxCell>
      </root>
    </mxGraphModel>
  </diagram>
</mxfile>
